<svg width="2000" height="1400" xmlns="http://www.w3.org/2000/svg"><path fill="#fcfcfe" d="M0 0h2000v1400H0z"/><path d="M0 350h0c83.53 41.348 167.06 82.696 246 84 78.94 1.304 153.29-37.437 246-49 92.71-11.563 203.783 4.051 285 23 81.217 18.949 132.577 41.232 210 22s180.907-79.98 273-117c92.093-37.02 172.794-50.313 246-36 73.206 14.313 138.916 56.232 220 73s177.542 8.384 314 0" fill="none" stroke="#f9f8fd" stroke-width="5" stroke-linecap="round"/><path d="M0 700h0c84.586 17.552 169.172 35.105 252 32 82.828-3.105 163.897-26.867 253-28 89.103-1.133 186.238 20.364 270 23 83.762 2.636 154.149-13.59 232-18s163.166 2.993 252-6 181.186-34.383 270-53c88.814-18.617 174.09-30.462 252-21s148.455 40.231 259 71" fill="none" stroke="#eeedfa" stroke-width="5" stroke-linecap="round"/><path d="M0 1050h0c87.537 56.507 175.073 113.013 253 86 77.927-27.013 146.244-137.546 221-144 74.756-6.454 155.95 91.172 247 117 91.05 25.828 191.952-20.143 275-19 83.048 1.143 148.24 49.4 236 22 87.76-27.4 198.09-130.454 285-149 86.91-18.546 150.403 47.415 227 76 76.597 28.585 166.298 19.792 296 11" fill="none" stroke="#efedfa" stroke-width="5" stroke-linecap="round"/></svg>